ffprobe version n2.6.1 Copyright (c) 2007-2015 the FFmpeg developers
  built with gcc 4.8 (Ubuntu 4.8.2-19ubuntu1)
  configuration: --prefix=/opt/ffmpeg --extra-cflags=-I/opt/ffmpeg/include --extra-ldflags=-L/opt/ffmpeg/lib --extra-libs=-ldl --enable-gpl --enable-libass --enable-libfdk-aac --enable-libfreetype --enable-libmp3lame --enable-libtheora --enable-libvorbis --enable-libvpx --enable-libx264 --enable-libx265 --enable-nonfree
  libavutil      54. 20.100 / 54. 20.100
  libavcodec     56. 26.100 / 56. 26.100
  libavformat    56. 25.101 / 56. 25.101
  libavdevice    56.  4.100 / 56.  4.100
  libavfilter     5. 11.102 /  5. 11.102
  libswscale      3.  1.101 /  3.  1.101
  libswresample   1.  1.100 /  1.  1.100
  libpostproc    53.  3.100 / 53.  3.100
Input #0, avi, from 'ed_hd.avi':
  Metadata:
    encoder         : AVI-Mux GUI 1.17.5, Apr  5 2006  18:41:17
    JUNK            : 
  Duration: 00:10:53.79, start: 0.000000, bitrate: 10456 kb/s
    Stream #0:0: Video: msmpeg4v2 (MP42 / 0x3234504D), yuv420p, 1920x1080, 10002 kb/s, 24 fps, 24 tbr, 24 tbn, 24 tbc
    Stream #0:1: Audio: ac3 ([0] [0][0] / 0x2000), 48000 Hz, 5.1(side), fltp, 448 kb/s
    Metadata:
      title           : ED-CM-5.1-DVD-Final2
